<?xml version="1.0" encoding="utf-8"?>
<!-- Generator: Adobe Illustrator 23.0.0, SVG Export Plug-In . SVG Version: 6.00 Build 0)  -->
<svg version="1.1" id="Camada_1" xmlns="http://www.w3.org/2000/svg" xmlns:xlink="http://www.w3.org/1999/xlink" x="0px" y="0px"
	 viewBox="0 0 159 20" style="enable-background:new 0 0 159 20;" xml:space="preserve">
<style type="text/css">
	.st0{fill:#141414;}
	.st1{fill:#FCAD22;}
</style>
<g>
	<path class="st0" d="M2.1,16.1c-0.6,0-1-0.4-1-1v-0.3H0.8c-0.6,0-1-0.4-1-1v-2.5c0-0.6,0.4-1,1-1h2.5c0.6,0,1,0.4,1,1v0.3h0.5V4.7
		H4.6c-0.6,0-1-0.4-1-1V1.1c0-0.6,0.4-1,1-1h5.1c0.6,0,1,0.4,1,1v2.5c0,0.6-0.4,1-1,1H9.4v9.1c0,0.6-0.4,1-1,1H8.2v0.3
		c0,0.6-0.4,1-1,1H2.1z"/>
	<path class="st1" d="M5.9,15.1H4.6H3.4H2.1v-1.3H0.8v-1.3v-1.3h1.3h1.3v1.3h1.3h1.3v-1.3V10V8.7V7.5V6.2V4.9V3.7H4.6V2.4V1.1h1.3
		h1.3h1.3h1.3v1.3v1.3H8.4v1.3v1.3v1.3v1.3V10v1.3v1.3v1.3H7.2v1.3H5.9z"/>
	<path class="st0" d="M13.5,16.1c-0.6,0-1-0.4-1-1v-0.3h-0.3c-0.6,0-1-0.4-1-1V6.2c0-0.6,0.4-1,1-1h0.3V4.9c0-0.6,0.4-1,1-1h5.1
		c0.6,0,1,0.4,1,1v0.3h0.3c0.6,0,1,0.4,1,1v8.9c0,0.6-0.4,1-1,1H13.5z M16.3,11.5V8.5h-0.5v3.1H16.3z"/>
	<path class="st1" d="M18.6,15.1h-1.3h-1.3h-1.3h-1.3v-1.3h-1.3v-1.3v-1.3V10V8.7V7.5V6.2h1.3V4.9h1.3h1.3h1.3h1.3v1.3h1.3v1.3v1.3
		V10v1.3v1.3v1.3v1.3H18.6z M16.1,12.5h1.3v-1.3V10V8.7V7.5h-1.3h-1.3v1.3V10v1.3v1.3H16.1z"/>
	<path class="st0" d="M24.9,16.1c-0.6,0-1-0.4-1-1v-0.3h-0.3c-0.6,0-1-0.4-1-1v-0.3h-0.3c-0.6,0-1-0.4-1-1V4.9c0-0.6,0.4-1,1-1h2.5
		c0.6,0,1,0.4,1,1v5.3h0.5V4.9c0-0.6,0.4-1,1-1H30c0.6,0,1,0.4,1,1v7.6c0,0.6-0.4,1-1,1h-0.3v0.3c0,0.6-0.4,1-1,1h-0.3v0.3
		c0,0.6-0.4,1-1,1H24.9z"/>
	<path class="st1" d="M26.2,15.1h-1.3v-1.3h-1.3v-1.3h-1.3v-1.3V10V8.7V7.5V6.2V4.9h1.3h1.3v1.3v1.3v1.3V10v1.3h1.3h1.3V10V8.7V7.5
		V6.2V4.9h1.3H30v1.3v1.3v1.3V10v1.3v1.3h-1.3v1.3h-1.3v1.3H26.2z"/>
	<path class="st0" d="M33.8,16.1c-0.6,0-1-0.4-1-1v-0.3h-0.3c-0.6,0-1-0.4-1-1V6.2c0-0.6,0.4-1,1-1h0.3V4.9c0-0.6,0.4-1,1-1h5.1
		c0.6,0,1,0.4,1,1v0.3h0.3c0.6,0,1,0.4,1,1v8.9c0,0.6-0.4,1-1,1H33.8z M36.6,11.5V8.5h-0.5v3.1H36.6z"/>
	<path class="st1" d="M38.9,15.1h-1.3h-1.3h-1.3h-1.3v-1.3h-1.3v-1.3v-1.3V10V8.7V7.5V6.2h1.3V4.9h1.3h1.3h1.3h1.3v1.3h1.3v1.3v1.3
		V10v1.3v1.3v1.3v1.3H38.9z M36.4,12.5h1.3v-1.3V10V8.7V7.5h-1.3h-1.3v1.3V10v1.3v1.3H36.4z"/>
	<path class="st0" d="M44,16.1c-0.6,0-1-0.4-1-1v-0.3h-0.3c-0.6,0-1-0.4-1-1v-2.5c0-0.6,0.4-1,1-1h2.5c0.6,0,1,0.4,1,1v0.3h3.1V9.7
		H44c-0.6,0-1-0.4-1-1V8.5h-0.3c-0.6,0-1-0.4-1-1V2.4c0-0.6,0.4-1,1-1H43V1.1c0-0.6,0.4-1,1-1h7.6c0.6,0,1,0.4,1,1v0.3h0.3
		c0.6,0,1,0.4,1,1v2.5c0,0.6-0.4,1-1,1h-0.3c0,0.1,0,0.2,0,0.3v0.3h0.3c0.6,0,1,0.4,1,1v6.3c0,0.6-0.4,1-1,1h-0.3v0.3
		c0,0.6-0.4,1-1,1H44z M49.3,5.2c0-0.1,0-0.2,0-0.3V4.7h-3.1v0.5H49.3z"/>
	<path class="st1" d="M50.3,15.1H49h-1.3h-1.3h-1.3H44v-1.3h-1.3v-1.3v-1.3H44h1.3v1.3h1.3h1.3H49h1.3v-1.3V10V8.7H49h-1.3h-1.3
		h-1.3H44V7.5h-1.3V6.2V4.9V3.7V2.4H44V1.1h1.3h1.3h1.3H49h1.3h1.3v1.3h1.3v1.3v1.3h-1.3h-1.3V3.7H49h-1.3h-1.3h-1.3v1.3v1.3h1.3
		h1.3H49h1.3h1.3v1.3h1.3v1.3V10v1.3v1.3v1.3h-1.3v1.3H50.3z"/>
	<path class="st0" d="M56.7,16.1c-0.6,0-1-0.4-1-1v-0.3h-0.3c-0.6,0-1-0.4-1-1V6.2c0-0.6,0.4-1,1-1h0.3V4.9c0-0.6,0.4-1,1-1h5.1
		c0.6,0,1,0.4,1,1v0.3H63c0.6,0,1,0.4,1,1v2.5c0,0.6-0.4,1-1,1h-2.5c-0.6,0-1-0.4-1-1V8.5h-0.5v3.1h0.5v-0.3c0-0.6,0.4-1,1-1H63
		c0.6,0,1,0.4,1,1v2.5c0,0.6-0.4,1-1,1h-0.3v0.3c0,0.6-0.4,1-1,1H56.7z"/>
	<path class="st1" d="M60.5,15.1h-1.3h-1.3h-1.3v-1.3h-1.3v-1.3v-1.3V10V8.7V7.5V6.2h1.3V4.9h1.3h1.3h1.3h1.3v1.3H63v1.3v1.3h-1.3
		h-1.3V7.5h-1.3h-1.3v1.3V10v1.3v1.3h1.3h1.3v-1.3h1.3H63v1.3v1.3h-1.3v1.3H60.5z"/>
	<path class="st0" d="M65.5,16.1c-0.6,0-1-0.4-1-1V4.9c0-0.6,0.4-1,1-1h6.3c0.6,0,1,0.4,1,1v0.3h0.3c0.6,0,1,0.4,1,1v2.5
		c0,0.6-0.4,1-1,1h-2.5c-0.6,0-1-0.4-1-1V8.5h-0.5v6.6c0,0.6-0.4,1-1,1H65.5z"/>
	<path class="st1" d="M66.8,15.1h-1.3v-1.3v-1.3v-1.3V10V8.7V7.5V6.2V4.9h1.3h1.3h1.3h1.3h1.3v1.3h1.3v1.3v1.3h-1.3h-1.3V7.5h-1.3
		h-1.3v1.3V10v1.3v1.3v1.3v1.3H66.8z"/>
	<path class="st0" d="M75.7,16.1c-0.6,0-1-0.4-1-1V4.9c0-0.2,0.1-0.5,0.2-0.6c-0.1-0.2-0.2-0.4-0.2-0.6V1.1c0-0.6,0.4-1,1-1h2.5
		c0.6,0,1,0.4,1,1v2.5c0,0.2-0.1,0.5-0.2,0.6c0.1,0.2,0.2,0.4,0.2,0.6v10.1c0,0.6-0.4,1-1,1H75.7z"/>
	<path class="st1" d="M76.9,3.7h-1.3V2.4V1.1h1.3h1.3v1.3v1.3H76.9z M76.9,15.1h-1.3v-1.3v-1.3v-1.3V10V8.7V7.5V6.2V4.9h1.3h1.3v1.3
		v1.3v1.3V10v1.3v1.3v1.3v1.3H76.9z"/>
	<path class="st0" d="M80.8,19.9c-0.6,0-1-0.4-1-1v-14c0-0.6,0.4-1,1-1h2.5c0.2,0,0.5,0.1,0.6,0.2c0.2-0.1,0.4-0.2,0.6-0.2h3.8
		c0.6,0,1,0.4,1,1v0.3h0.3c0.6,0,1,0.4,1,1v7.6c0,0.6-0.4,1-1,1h-0.3v0.3c0,0.6-0.4,1-1,1h-3.8c-0.1,0-0.2,0-0.3,0v2.8
		c0,0.6-0.4,1-1,1H80.8z M86.1,11.5V8.5h-0.5v0.3c0,0.6-0.4,1-1,1h-0.3v0.5h0.3c0.6,0,1,0.4,1,1v0.3H86.1z"/>
	<path class="st1" d="M82,18.9h-1.3v-1.3v-1.3v-1.3v-1.3v-1.3v-1.3V10V8.7V7.5V6.2V4.9H82h1.3v1.3h1.3V4.9h1.3h1.3h1.3v1.3h1.3v1.3
		v1.3V10v1.3v1.3v1.3h-1.3v1.3h-1.3h-1.3h-1.3v-1.3h-1.3v1.3v1.3v1.3v1.3H82z M85.8,12.5h1.3v-1.3V10V8.7V7.5h-1.3h-1.3v1.3h-1.3V10
		v1.3h1.3v1.3H85.8z"/>
	<path class="st0" d="M93.4,16.1c-0.6,0-1-0.4-1-1v-0.3h-0.3c-0.6,0-1-0.4-1-1V8.5h-0.3c-0.6,0-1-0.4-1-1V4.9c0-0.6,0.4-1,1-1h0.3
		V1.1c0-0.6,0.4-1,1-1h2.5c0.6,0,1,0.4,1,1v2.8H96c0.6,0,1,0.4,1,1v2.5c0,0.6-0.4,1-1,1h-0.3v3.1H96c0.6,0,1,0.4,1,1v2.5
		c0,0.6-0.4,1-1,1H93.4z"/>
	<path class="st1" d="M94.7,15.1h-1.3v-1.3h-1.3v-1.3v-1.3V10V8.7V7.5h-1.3V6.2V4.9h1.3V3.7V2.4V1.1h1.3h1.3v1.3v1.3v1.3H96v1.3v1.3
		h-1.3v1.3V10v1.3v1.3H96v1.3v1.3H94.7z"/>
	<path class="st0" d="M106.1,16.1c-0.6,0-1-0.4-1-1v-0.3h-0.3c-0.6,0-1-0.4-1-1v-2.5c0-0.6,0.4-1,1-1h2.5c0.6,0,1,0.4,1,1v0.3h3.1
		V9.7h-5.3c-0.6,0-1-0.4-1-1V8.5h-0.3c-0.6,0-1-0.4-1-1V2.4c0-0.6,0.4-1,1-1h0.3V1.1c0-0.6,0.4-1,1-1h7.6c0.6,0,1,0.4,1,1v0.3h0.3
		c0.6,0,1,0.4,1,1v2.5c0,0.6-0.4,1-1,1h-0.3c0,0.1,0,0.2,0,0.3v0.3h0.3c0.6,0,1,0.4,1,1v6.3c0,0.6-0.4,1-1,1h-0.3v0.3
		c0,0.6-0.4,1-1,1H106.1z M111.5,5.2c0-0.1,0-0.2,0-0.3V4.7h-3.1v0.5H111.5z"/>
	<path class="st1" d="M112.5,15.1h-1.3h-1.3h-1.3h-1.3h-1.3v-1.3h-1.3v-1.3v-1.3h1.3h1.3v1.3h1.3h1.3h1.3h1.3v-1.3V10V8.7h-1.3h-1.3
		h-1.3h-1.3h-1.3V7.5h-1.3V6.2V4.9V3.7V2.4h1.3V1.1h1.3h1.3h1.3h1.3h1.3h1.3v1.3h1.3v1.3v1.3h-1.3h-1.3V3.7h-1.3h-1.3h-1.3h-1.3v1.3
		v1.3h1.3h1.3h1.3h1.3h1.3v1.3h1.3v1.3V10v1.3v1.3v1.3h-1.3v1.3H112.5z"/>
	<path class="st0" d="M118.8,16.1c-0.6,0-1-0.4-1-1v-0.3h-0.3c-0.6,0-1-0.4-1-1V4.9c0-0.6,0.4-1,1-1h2.5c0.6,0,1,0.4,1,1v6.6h0.5
		V4.9c0-0.6,0.4-1,1-1h2.5c0.6,0,1,0.4,1,1v10.1c0,0.6-0.4,1-1,1H118.8z"/>
	<path class="st1" d="M123.9,15.1h-1.3h-1.3h-1.3h-1.3v-1.3h-1.3v-1.3v-1.3V10V8.7V7.5V6.2V4.9h1.3h1.3v1.3v1.3v1.3V10v1.3v1.3h1.3
		h1.3v-1.3V10V8.7V7.5V6.2V4.9h1.3h1.3v1.3v1.3v1.3V10v1.3v1.3v1.3v1.3H123.9z"/>
	<path class="st0" d="M127.7,19.9c-0.6,0-1-0.4-1-1v-14c0-0.6,0.4-1,1-1h2.5c0.2,0,0.5,0.1,0.6,0.2c0.2-0.1,0.4-0.2,0.6-0.2h3.8
		c0.6,0,1,0.4,1,1v0.3h0.3c0.6,0,1,0.4,1,1v7.6c0,0.6-0.4,1-1,1h-0.3v0.3c0,0.6-0.4,1-1,1h-3.8c-0.1,0-0.2,0-0.3,0v2.8
		c0,0.6-0.4,1-1,1H127.7z M133,11.5V8.5h-0.5v0.3c0,0.6-0.4,1-1,1h-0.3v0.5h0.3c0.6,0,1,0.4,1,1v0.3H133z"/>
	<path class="st1" d="M129,18.9h-1.3v-1.3v-1.3v-1.3v-1.3v-1.3v-1.3V10V8.7V7.5V6.2V4.9h1.3h1.3v1.3h1.3V4.9h1.3h1.3h1.3v1.3h1.3
		v1.3v1.3V10v1.3v1.3v1.3h-1.3v1.3H134h-1.3h-1.3v-1.3h-1.3v1.3v1.3v1.3v1.3H129z M132.8,12.5h1.3v-1.3V10V8.7V7.5h-1.3h-1.3v1.3
		h-1.3V10v1.3h1.3v1.3H132.8z"/>
	<path class="st0" d="M140.4,16.1c-0.6,0-1-0.4-1-1v-0.3h-0.3c-0.6,0-1-0.4-1-1V6.2c0-0.6,0.4-1,1-1h0.3V4.9c0-0.6,0.4-1,1-1h5.1
		c0.6,0,1,0.4,1,1v0.3h0.3c0.6,0,1,0.4,1,1V10c0,0.2-0.1,0.5-0.2,0.6c0.1,0.2,0.2,0.4,0.2,0.6v2.5c0,0.6-0.4,1-1,1h-0.3v0.3
		c0,0.6-0.4,1-1,1H140.4z M143.2,11.5v-0.3c0-0.1,0-0.2,0-0.3h-0.6v0.5H143.2z"/>
	<path class="st1" d="M144.2,15.1h-1.3h-1.3h-1.3v-1.3h-1.3v-1.3v-1.3V10V8.7V7.5V6.2h1.3V4.9h1.3h1.3h1.3h1.3v1.3h1.3v1.3v1.3V10
		h-1.3h-1.3h-1.3h-1.3v1.3v1.3h1.3h1.3v-1.3h1.3h1.3v1.3v1.3h-1.3v1.3H144.2z M142.9,8.7h1.3V7.5h-1.3h-1.3v1.3H142.9z"/>
	<path class="st0" d="M149.3,16.1c-0.6,0-1-0.4-1-1V4.9c0-0.6,0.4-1,1-1h6.3c0.6,0,1,0.4,1,1v0.3h0.3c0.6,0,1,0.4,1,1v2.5
		c0,0.6-0.4,1-1,1h-2.5c-0.6,0-1-0.4-1-1V8.5h-0.5v6.6c0,0.6-0.4,1-1,1H149.3z"/>
	<path class="st1" d="M150.5,15.1h-1.3v-1.3v-1.3v-1.3V10V8.7V7.5V6.2V4.9h1.3h1.3h1.3h1.3h1.3v1.3h1.3v1.3v1.3h-1.3h-1.3V7.5h-1.3
		h-1.3v1.3V10v1.3v1.3v1.3v1.3H150.5z"/>
</g>
</svg>
